<?xml version="1.0" encoding="UTF-8"?>
<svg xmlns="http://www.w3.org/2000/svg" xmlns:xlink="http://www.w3.org/1999/xlink" width="298pt" height="298pt" viewBox="0 0 298 298" version="1.1">
<g id="surface1">
<path style=" stroke:none;fill-rule:evenodd;fill:rgb(17.999268%,18.798828%,57.299805%);fill-opacity:1;" d="M 36.480469 199.035156 C 29.488281 189.351563 26.445313 176.5625 24.359375 165.046875 C 22.863281 156.804688 21.828125 148.414063 20.066406 140.234375 C 19.046875 135.515625 17.285156 128.472656 14.015625 124.773438 L 7.269531 117.144531 L 17.222656 114.988281 C 21.648438 114.027344 26.96875 109.804688 30.34375 106.921875 C 36.277344 101.859375 41.804688 96.160156 47.386719 90.707031 C 56.140625 82.160156 68.125 70.578125 80.53125 67.148438 C 88.097656 55.40625 103.464844 48.71875 115.519531 42.9375 C 124.949219 38.421875 138.292969 32.195313 143.902344 22.972656 L 149 14.589844 L 154.097656 22.972656 C 159.707031 32.195313 173.050781 38.421875 182.480469 42.9375 C 194.535156 48.71875 209.902344 55.40625 217.46875 67.148438 C 229.875 70.578125 241.859375 82.160156 250.613281 90.707031 C 256.195313 96.160156 261.722656 101.859375 267.65625 106.921875 C 271.03125 109.804688 276.351563 114.027344 280.777344 114.988281 L 290.730469 117.144531 L 283.984375 124.773438 C 280.714844 128.472656 278.953125 135.515625 277.933594 140.234375 C 276.171875 148.414063 275.136719 156.804688 273.640625 165.046875 C 271.558594 176.5625 268.511719 189.351563 261.519531 199.035156 C 261.460938 205.851563 260.128906 212.363281 257.816406 218.828125 C 254.398438 228.378906 249.148438 237.085938 244.636719 246.128906 C 240.003906 255.414063 236.519531 264.46875 235.546875 274.898438 L 234.765625 283.257813 L 227.125 279.769531 C 221.460938 277.183594 213.96875 277.523438 207.917969 278.160156 C 199.042969 279.101563 190.222656 280.992188 181.359375 282.191406 C 170.65625 283.640625 159.527344 284.246094 149 281.433594 C 138.472656 284.246094 127.34375 283.640625 116.640625 282.191406 C 107.777344 280.992188 98.957031 279.101563 90.082031 278.160156 C 84.03125 277.523438 76.539063 277.183594 70.875 279.769531 L 63.234375 283.257813 L 62.453125 274.898438 C 61.480469 264.46875 58 255.414063 53.363281 246.128906 C 48.851563 237.085938 43.601563 228.378906 40.183594 218.828125 C 37.871094 212.363281 36.539063 205.851563 36.480469 199.035156 "/>
<path style=" stroke:none;fill-rule:evenodd;fill:rgb(0%,44.699097%,73.699951%);fill-opacity:1;" d="M 149 275.226563 C 121.9375 283.507813 88.246094 265.28125 68.394531 274.339844 C 65.417969 242.46875 41.59375 225.425781 42.46875 197.050781 C 26.03125 176.6875 30.910156 134.867188 18.484375 120.820313 C 37.132813 116.78125 61.828125 76.234375 84.378906 72.390625 C 95.183594 51.484375 136.050781 47.371094 149 26.074219 C 161.949219 47.371094 202.816406 51.484375 213.621094 72.390625 C 236.171875 76.234375 260.867188 116.78125 279.515625 120.820313 C 267.089844 134.867188 271.972656 176.6875 255.53125 197.050781 C 256.40625 225.425781 232.582031 242.46875 229.605469 274.339844 C 209.753906 265.28125 176.0625 283.507813 149 275.226563 "/>
<path style=" stroke:none;fill-rule:evenodd;fill:rgb(100%,90.19928%,0%);fill-opacity:1;" d="M 107.125 91.988281 C 109.105469 105.046875 110.375 116.660156 107.425781 125.082031 C 105.425781 130.792969 102.648438 136.222656 99.917969 141.679688 C 92.214844 157.082031 85.0625 176.953125 90.875 194.074219 C 97.558594 213.757813 121.675781 217.441406 148.9375 214.679688 C 148.945313 215.96875 149.023438 217.101563 148.984375 218.496094 C 141.734375 216.992188 109.351563 224.382813 92.316406 212.609375 C 81.433594 209.550781 73.410156 202.597656 74.152344 190.546875 C 71.402344 183.789063 72.105469 177.46875 76.101563 171.527344 C 74.484375 161.945313 76.03125 154.015625 82.195313 148.488281 C 82.09375 125.949219 88.636719 123.863281 98.15625 111.246094 C 101.027344 107.433594 103.683594 101.316406 107.125 91.988281 "/>
<path style=" stroke:none;fill-rule:evenodd;fill:rgb(100%,100%,100%);fill-opacity:1;" d="M 91.277344 132.050781 C 95.449219 122.582031 92.632813 119.367188 88.191406 129.941406 C 84.457031 138.828125 86.679688 142.484375 91.277344 132.050781 "/>
<path style=" stroke:none;fill-rule:evenodd;fill:rgb(100%,100%,100%);fill-opacity:1;" d="M 82.347656 160.363281 C 85.984375 150.675781 82.988281 147.628906 79.148438 158.433594 C 75.917969 167.515625 78.34375 171.035156 82.347656 160.363281 "/>
<path style=" stroke:none;fill-rule:evenodd;fill:rgb(100%,100%,100%);fill-opacity:1;" d="M 78.628906 180.878906 C 80.164063 171.242188 76.828125 168.988281 75.308594 179.691406 C 74.03125 188.691406 76.933594 191.488281 78.628906 180.878906 "/>
<path style=" stroke:none;fill-rule:evenodd;fill:rgb(100%,100%,100%);fill-opacity:1;" d="M 85.238281 200.792969 C 78.816406 193.449219 74.949219 194.574219 82.207031 202.589844 C 88.308594 209.324219 92.316406 208.882813 85.238281 200.792969 "/>
<path style=" stroke:none;fill-rule:evenodd;fill:rgb(100%,100%,100%);fill-opacity:1;" d="M 105.132813 215.320313 C 115.261719 218.417969 117.855469 216.75 106.589844 213.433594 C 97.121094 210.644531 93.976563 211.910156 105.132813 215.320313 "/>
<path style=" stroke:none;fill-rule:evenodd;fill:rgb(100%,90.19928%,0%);fill-opacity:1;" d="M 192.015625 91.988281 C 190.035156 105.046875 188.769531 116.660156 191.714844 125.082031 C 193.714844 130.792969 196.492188 136.222656 199.222656 141.679688 C 206.925781 157.082031 214.078125 176.953125 208.265625 194.074219 C 201.582031 213.757813 177.46875 217.441406 150.199219 214.679688 C 150.195313 215.96875 150.117188 217.101563 150.15625 218.496094 C 157.40625 216.992188 189.789063 224.382813 206.828125 212.609375 C 217.707031 209.550781 225.730469 202.597656 224.988281 190.546875 C 227.738281 183.789063 227.035156 177.46875 223.039063 171.527344 C 224.65625 161.945313 223.109375 154.015625 216.945313 148.488281 C 217.046875 125.949219 210.503906 123.863281 200.984375 111.246094 C 198.113281 107.433594 195.460938 101.316406 192.015625 91.988281 "/>
<path style=" stroke:none;fill-rule:evenodd;fill:rgb(100%,100%,100%);fill-opacity:1;" d="M 207.863281 132.050781 C 203.691406 122.582031 206.511719 119.367188 210.949219 129.941406 C 214.683594 138.828125 212.460938 142.484375 207.863281 132.050781 "/>
<path style=" stroke:none;fill-rule:evenodd;fill:rgb(100%,100%,100%);fill-opacity:1;" d="M 216.792969 160.363281 C 213.15625 150.675781 216.152344 147.628906 219.992188 158.433594 C 223.222656 167.515625 220.800781 171.035156 216.792969 160.363281 "/>
<path style=" stroke:none;fill-rule:evenodd;fill:rgb(100%,100%,100%);fill-opacity:1;" d="M 220.515625 180.878906 C 218.976563 171.242188 222.3125 168.988281 223.832031 179.691406 C 225.109375 188.691406 222.210938 191.488281 220.515625 180.878906 "/>
<path style=" stroke:none;fill-rule:evenodd;fill:rgb(100%,100%,100%);fill-opacity:1;" d="M 213.902344 200.792969 C 220.324219 193.449219 224.191406 194.574219 216.933594 202.589844 C 210.832031 209.324219 206.824219 208.882813 213.902344 200.792969 "/>
<path style=" stroke:none;fill-rule:evenodd;fill:rgb(100%,100%,100%);fill-opacity:1;" d="M 194.007813 215.320313 C 183.882813 218.417969 181.285156 216.75 192.550781 213.433594 C 202.019531 210.644531 205.164063 211.910156 194.007813 215.320313 "/>
<path style=" stroke:none;fill-rule:evenodd;fill:rgb(92.89856%,10.998535%,14.099121%);fill-opacity:1;" d="M 137.746094 205.359375 C 122.84375 201.957031 112.402344 194.980469 105.316406 196.980469 C 103.625 197.421875 104.035156 198.308594 105.023438 199.839844 C 113.421875 212.359375 127.992188 209.421875 141.324219 209.476563 C 147 209.5 152.496094 209.480469 158.171875 209.476563 C 171.40625 209.472656 185.796875 212.246094 194.117188 199.839844 C 195.105469 198.308594 195.515625 197.421875 193.824219 196.980469 C 186.628906 194.949219 175.972656 202.171875 160.703125 205.515625 C 152.664063 207.273438 145.773438 207.191406 137.746094 205.359375 "/>
<path style=" stroke:none;fill-rule:evenodd;fill:rgb(13.699341%,12.199402%,12.5%);fill-opacity:1;" d="M 177.882813 152.84375 L 178.148438 153.140625 L 178.089844 153.53125 C 176.375 165.382813 174.496094 177.207031 172.78125 189.058594 L 172.542969 190.714844 L 171.675781 189.960938 L 170.449219 189.960938 C 156.578125 189.945313 142.710938 189.945313 128.839844 189.960938 L 127.613281 189.960938 L 126.601563 190.714844 L 126.359375 189.058594 C 124.644531 177.207031 122.765625 165.382813 121.050781 153.53125 L 120.992188 153.140625 L 121.257813 152.84375 C 125.609375 146.742188 142.078125 143.71875 149.570313 147.785156 C 156.59375 143.394531 174.671875 147.125 177.882813 152.84375 "/>
<path style=" stroke:none;fill-rule:evenodd;fill:rgb(100%,100%,100%);fill-opacity:1;" d="M 149.273438 188.917969 L 149.273438 184.558594 L 134.453125 184.558594 L 134.453125 183.707031 L 149.273438 183.707031 L 149.273438 180.878906 L 133.433594 180.878906 L 133.433594 180.027344 L 149.273438 180.027344 L 149.273438 176.535156 C 145.679688 176.167969 142.113281 175.925781 138.648438 176.164063 C 136.039063 176.347656 133.484375 176.800781 131.015625 177.679688 C 131.347656 180.429688 131.675781 183.167969 131.984375 185.886719 C 130.964844 186.972656 129.785156 187.859375 128.765625 188.945313 C 135.484375 188.933594 142.554688 188.925781 149.273438 188.917969 Z M 149.273438 175.679688 L 149.273438 172.453125 C 145.679688 172.085938 142.113281 171.84375 138.648438 172.085938 C 135.871094 172.277344 133.15625 172.777344 130.539063 173.769531 L 130.910156 176.8125 C 133.402344 175.949219 135.972656 175.496094 138.589844 175.316406 C 142.085938 175.074219 145.667969 175.3125 149.273438 175.679688 Z M 149.273438 171.597656 L 149.273438 168.421875 C 145.679688 168.054688 142.113281 167.8125 138.648438 168.050781 C 135.703125 168.253906 132.824219 168.808594 130.0625 169.925781 L 130.433594 172.902344 C 133.074219 171.925781 135.804688 171.429688 138.589844 171.234375 C 142.085938 170.992188 145.667969 171.230469 149.273438 171.597656 Z M 149.273438 167.566406 L 149.273438 164.0625 C 145.679688 163.695313 142.113281 163.453125 138.648438 163.695313 C 135.519531 163.910156 132.46875 164.519531 129.550781 165.78125 L 129.957031 169.054688 C 132.746094 167.953125 135.636719 167.40625 138.589844 167.203125 C 142.085938 166.960938 145.667969 167.199219 149.273438 167.566406 Z M 149.273438 163.207031 L 149.273438 160.03125 C 145.679688 159.664063 142.113281 159.421875 138.648438 159.660156 C 135.351563 159.890625 132.140625 160.554688 129.078125 161.960938 L 129.441406 164.90625 C 132.390625 163.664063 135.453125 163.0625 138.589844 162.847656 C 142.085938 162.605469 145.667969 162.84375 149.273438 163.207031 Z M 149.273438 159.175781 L 149.273438 155.683594 C 145.679688 155.316406 142.113281 155.074219 138.648438 155.3125 C 135.171875 155.554688 131.789063 156.28125 128.578125 157.851563 L 128.972656 161.078125 C 132.0625 159.699219 135.285156 159.039063 138.589844 158.8125 C 142.085938 158.570313 145.667969 158.808594 149.273438 159.175781 Z M 149.273438 154.828125 L 149.273438 151.539063 C 145.6875 151.171875 142.121094 150.917969 138.65625 151.140625 C 135.003906 151.375 131.453125 152.144531 128.101563 153.878906 C 128.222656 154.90625 128.34375 155.933594 128.46875 156.960938 C 131.710938 155.421875 135.105469 154.707031 138.589844 154.464844 C 142.085938 154.222656 145.667969 154.460938 149.273438 154.828125 Z M 149.273438 150.6875 L 149.273438 148.589844 C 143.316406 145.574219 135.28125 146.738281 127.574219 149.378906 C 127.714844 150.574219 127.851563 151.777344 127.992188 152.980469 C 131.382813 151.285156 134.945313 150.527344 138.605469 150.289063 C 142.097656 150.066406 145.675781 150.320313 149.273438 150.6875 "/>
<path style=" stroke:none;fill-rule:evenodd;fill:rgb(100%,100%,100%);fill-opacity:1;" d="M 126.558594 149.789063 C 127.984375 161.621094 129.433594 173.660156 130.859375 185.492188 C 129.597656 186.726563 128.46875 187.703125 127.203125 188.9375 C 125.488281 177.078125 123.609375 165.265625 121.894531 153.410156 C 123.289063 151.839844 124.910156 150.730469 126.558594 149.789063 "/>
<path style=" stroke:none;fill-rule:evenodd;fill:rgb(100%,100%,100%);fill-opacity:1;" d="M 149.867188 188.917969 L 149.867188 184.558594 L 164.6875 184.558594 L 164.6875 183.707031 L 149.867188 183.707031 L 149.867188 180.878906 L 165.707031 180.878906 L 165.707031 180.027344 L 149.867188 180.027344 L 149.867188 176.535156 C 153.460938 176.167969 157.027344 175.925781 160.492188 176.164063 C 163.101563 176.347656 165.65625 176.800781 168.125 177.679688 C 167.792969 180.429688 167.46875 183.167969 167.15625 185.886719 C 168.175781 186.972656 169.355469 187.859375 170.378906 188.945313 C 163.65625 188.933594 156.589844 188.925781 149.867188 188.917969 Z M 149.867188 175.679688 L 149.867188 172.453125 C 153.460938 172.085938 157.027344 171.84375 160.492188 172.085938 C 163.269531 172.277344 165.984375 172.777344 168.601563 173.769531 L 168.230469 176.8125 C 165.738281 175.949219 163.171875 175.496094 160.550781 175.316406 C 157.054688 175.074219 153.472656 175.3125 149.867188 175.679688 Z M 149.867188 171.597656 L 149.867188 168.421875 C 153.460938 168.054688 157.027344 167.8125 160.492188 168.050781 C 163.4375 168.253906 166.316406 168.808594 169.078125 169.925781 L 168.710938 172.902344 C 166.066406 171.925781 163.339844 171.429688 160.550781 171.234375 C 157.054688 170.992188 153.472656 171.230469 149.867188 171.597656 Z M 149.867188 167.566406 L 149.867188 164.0625 C 153.460938 163.695313 157.027344 163.453125 160.492188 163.695313 C 163.621094 163.910156 166.671875 164.519531 169.589844 165.78125 L 169.183594 169.054688 C 166.394531 167.953125 163.503906 167.40625 160.550781 167.203125 C 157.054688 166.960938 153.472656 167.199219 149.867188 167.566406 Z M 149.867188 163.207031 L 149.867188 160.03125 C 153.460938 159.664063 157.027344 159.421875 160.492188 159.660156 C 163.789063 159.890625 167 160.554688 170.0625 161.960938 L 169.699219 164.90625 C 166.753906 163.664063 163.6875 163.0625 160.550781 162.847656 C 157.054688 162.605469 153.472656 162.84375 149.867188 163.207031 Z M 149.867188 159.175781 L 149.867188 155.683594 C 153.460938 155.316406 157.027344 155.074219 160.492188 155.3125 C 163.972656 155.554688 167.351563 156.28125 170.5625 157.851563 L 170.171875 161.078125 C 167.078125 159.699219 163.855469 159.039063 160.550781 158.8125 C 157.054688 158.570313 153.472656 158.808594 149.867188 159.175781 Z M 149.867188 154.828125 L 149.867188 151.539063 C 153.453125 151.171875 157.019531 150.917969 160.484375 151.140625 C 164.140625 151.375 167.6875 152.144531 171.039063 153.878906 C 170.917969 154.90625 170.796875 155.933594 170.671875 156.960938 C 167.429688 155.421875 164.035156 154.707031 160.550781 154.464844 C 157.054688 154.222656 153.472656 154.460938 149.867188 154.828125 Z M 149.867188 150.6875 L 149.867188 148.589844 C 155.824219 145.574219 163.859375 146.738281 171.566406 149.378906 C 171.429688 150.574219 171.289063 151.777344 171.148438 152.980469 C 167.761719 151.285156 164.195313 150.527344 160.535156 150.289063 C 157.042969 150.066406 153.464844 150.320313 149.867188 150.6875 "/>
<path style=" stroke:none;fill-rule:evenodd;fill:rgb(100%,100%,100%);fill-opacity:1;" d="M 172.582031 149.789063 C 171.15625 161.621094 169.707031 173.660156 168.28125 185.492188 C 169.546875 186.726563 170.675781 187.703125 171.9375 188.9375 C 173.65625 177.078125 175.53125 165.265625 177.246094 153.410156 C 175.851563 151.839844 174.230469 150.730469 172.582031 149.789063 "/>
<path style=" stroke:none;fill-rule:evenodd;fill:rgb(13.699341%,12.199402%,12.5%);fill-opacity:1;" d="M 143.578125 116.375 L 155.566406 116.375 L 150.234375 206.785156 C 149.601563 206.789063 148.964844 206.777344 148.328125 206.753906 L 143.578125 116.375 "/>
<path style=" stroke:none;fill-rule:evenodd;fill:rgb(13.699341%,12.199402%,12.5%);fill-opacity:1;" d="M 153.320313 88.269531 L 153.714844 88.980469 C 154.25 89.949219 154.597656 91.285156 155.1875 92.140625 C 156.441406 93.960938 156.25 94.734375 156.46875 96.792969 C 156.582031 97.855469 156.847656 98.785156 157.113281 99.8125 C 157.621094 101.761719 157.652344 103.300781 157.347656 105.144531 L 160.480469 105.144531 L 160.480469 108.597656 L 163.835938 108.597656 L 163.835938 112.878906 L 160.382813 112.878906 L 160.382813 116.375 L 138.757813 116.375 L 138.757813 112.878906 L 135.308594 112.878906 L 135.308594 108.597656 L 138.660156 108.597656 L 138.660156 105.144531 L 141.792969 105.144531 C 141.488281 103.300781 141.519531 101.761719 142.027344 99.8125 C 142.292969 98.785156 142.558594 97.855469 142.671875 96.792969 C 142.890625 94.734375 142.699219 93.960938 143.953125 92.140625 C 144.542969 91.285156 144.890625 89.949219 145.425781 88.980469 L 145.824219 88.269531 C 146.148438 86.503906 146.90625 84.890625 147.136719 83.007813 C 147.488281 80.125 147.9375 77.453125 148.753906 74.65625 L 149.570313 71.84375 L 150.390625 74.65625 C 151.203125 77.453125 151.65625 80.125 152.003906 83.007813 C 152.234375 84.890625 152.992188 86.503906 153.320313 88.269531 "/>
<path style=" stroke:none;fill-rule:evenodd;fill:rgb(100%,100%,100%);fill-opacity:1;" d="M 139.609375 112.945313 L 159.53125 112.945313 L 159.53125 115.523438 L 139.609375 115.523438 L 139.609375 112.945313 "/>
<path style=" stroke:none;fill-rule:evenodd;fill:rgb(100%,100%,100%);fill-opacity:1;" d="M 136.160156 109.449219 L 162.980469 109.449219 L 162.980469 112.023438 L 136.160156 112.023438 L 136.160156 109.449219 "/>
<path style=" stroke:none;fill-rule:evenodd;fill:rgb(100%,100%,100%);fill-opacity:1;" d="M 139.511719 106 L 159.628906 106 L 159.628906 108.574219 L 139.511719 108.574219 L 139.511719 106 "/>
<path style=" stroke:none;fill-rule:evenodd;fill:rgb(92.89856%,10.998535%,14.099121%);fill-opacity:1;" d="M 146.171875 106 L 146.171875 89.394531 C 145.625 90.386719 145.210938 91.816406 144.65625 92.621094 C 143.523438 94.269531 143.738281 94.851563 143.519531 96.882813 C 143.171875 100.167969 141.789063 101.175781 142.824219 106 L 146.171875 106 "/>
<path style=" stroke:none;fill-rule:evenodd;fill:rgb(92.89856%,10.998535%,14.099121%);fill-opacity:1;" d="M 152.96875 106 L 152.96875 89.394531 C 153.515625 90.386719 153.933594 91.816406 154.484375 92.621094 C 155.617188 94.269531 155.402344 94.851563 155.621094 96.882813 C 155.96875 100.167969 157.351563 101.175781 156.316406 106 L 152.96875 106 "/>
<path style=" stroke:none;fill-rule:evenodd;fill:rgb(92.89856%,10.998535%,14.099121%);fill-opacity:1;" d="M 146.585938 106 L 146.585938 88.894531 C 146.835938 86.988281 147.671875 85.675781 147.984375 83.109375 C 148.289063 80.582031 148.640625 78.09375 149.570313 74.894531 C 150.5 78.09375 150.851563 80.582031 151.160156 83.109375 C 151.46875 85.675781 152.304688 86.988281 152.554688 88.894531 L 152.554688 106 L 146.585938 106 "/>
<path style=" stroke:none;fill-rule:nonzero;fill:rgb(100%,100%,100%);fill-opacity:1;" d="M 91.949219 88.203125 L 93.679688 86.554688 C 94.285156 87.097656 94.878906 87.382813 95.457031 87.40625 C 96.03125 87.429688 96.613281 87.21875 97.199219 86.757813 C 97.820313 86.273438 98.1875 85.773438 98.292969 85.265625 C 98.40625 84.753906 98.324219 84.324219 98.046875 83.972656 C 97.871094 83.746094 97.65625 83.605469 97.398438 83.554688 C 97.140625 83.496094 96.800781 83.535156 96.378906 83.679688 C 96.09375 83.777344 95.46875 84.042969 94.507813 84.46875 C 93.273438 85.023438 92.300781 85.273438 91.59375 85.222656 C 90.59375 85.15625 89.800781 84.746094 89.210938 83.988281 C 88.828125 83.503906 88.613281 82.941406 88.554688 82.300781 C 88.5 81.660156 88.648438 81.027344 88.992188 80.398438 C 89.339844 79.773438 89.878906 79.171875 90.613281 78.597656 C 91.816406 77.660156 92.921875 77.21875 93.941406 77.269531 C 94.957031 77.324219 95.824219 77.773438 96.542969 78.628906 L 94.679688 80.222656 C 94.210938 79.796875 93.757813 79.578125 93.320313 79.578125 C 92.878906 79.574219 92.386719 79.785156 91.84375 80.210938 C 91.285156 80.648438 90.929688 81.105469 90.796875 81.585938 C 90.707031 81.890625 90.757813 82.171875 90.953125 82.417969 C 91.128906 82.644531 91.375 82.761719 91.691406 82.773438 C 92.09375 82.789063 92.855469 82.539063 93.964844 82.027344 C 95.078125 81.515625 95.953125 81.203125 96.585938 81.085938 C 97.222656 80.972656 97.824219 81.019531 98.402344 81.234375 C 98.976563 81.445313 99.503906 81.855469 99.972656 82.457031 C 100.402344 83.007813 100.652344 83.636719 100.71875 84.351563 C 100.785156 85.070313 100.636719 85.761719 100.261719 86.425781 C 99.886719 87.097656 99.28125 87.753906 98.453125 88.402344 C 97.242188 89.347656 96.097656 89.792969 95.015625 89.742188 C 93.929688 89.6875 92.90625 89.175781 91.949219 88.203125 Z M 103.875 84.160156 L 97.992188 73.550781 L 101.199219 71.773438 L 107.136719 77.945313 L 105.027344 69.652344 L 108.238281 67.871094 L 114.121094 78.480469 L 112.132813 79.585938 L 107.503906 71.230469 L 110.023438 80.753906 L 107.964844 81.894531 L 101.234375 74.707031 L 105.863281 83.058594 Z M 116.25 77.414063 L 112.503906 65.878906 L 116.238281 64.664063 C 117.652344 64.203125 118.597656 63.960938 119.0625 63.9375 C 119.78125 63.894531 120.460938 64.089844 121.09375 64.527344 C 121.726563 64.960938 122.195313 65.636719 122.492188 66.554688 C 122.722656 67.261719 122.789063 67.902344 122.6875 68.464844 C 122.585938 69.035156 122.382813 69.519531 122.074219 69.921875 C 121.769531 70.324219 121.425781 70.640625 121.046875 70.859375 C 120.527344 71.152344 119.738281 71.46875 118.683594 71.8125 L 117.164063 72.304688 L 118.578125 76.65625 Z M 115.464844 67.074219 L 116.527344 70.34375 L 117.800781 69.929688 C 118.71875 69.632813 119.316406 69.375 119.585938 69.152344 C 119.855469 68.929688 120.035156 68.664063 120.128906 68.351563 C 120.21875 68.035156 120.210938 67.707031 120.101563 67.367188 C 119.964844 66.949219 119.730469 66.640625 119.394531 66.449219 C 119.058594 66.257813 118.691406 66.1875 118.292969 66.242188 C 117.996094 66.277344 117.429688 66.433594 116.589844 66.707031 Z M 131.34375 72.832031 L 129.238281 60.886719 L 131.585938 60.472656 L 137.878906 67.585938 L 136.472656 59.609375 L 138.714844 59.214844 L 140.820313 71.160156 L 138.398438 71.589844 L 132.210938 64.644531 L 133.585938 72.4375 Z M 143.40625 71.164063 L 143.195313 59.035156 L 152.1875 58.878906 L 152.222656 60.933594 L 145.679688 61.046875 L 145.726563 63.734375 L 151.816406 63.628906 L 151.851563 65.671875 L 145.761719 65.777344 L 145.820313 69.078125 L 152.59375 68.960938 L 152.632813 71.003906 Z M 160.847656 67.429688 L 161.097656 65.398438 L 166.335938 66.042969 L 165.746094 70.839844 C 165.175781 71.269531 164.386719 71.613281 163.371094 71.871094 C 162.359375 72.125 161.355469 72.191406 160.367188 72.070313 C 159.109375 71.914063 158.042969 71.519531 157.171875 70.875 C 156.300781 70.230469 155.6875 69.390625 155.339844 68.347656 C 154.988281 67.308594 154.882813 66.210938 155.027344 65.054688 C 155.179688 63.800781 155.578125 62.71875 156.222656 61.808594 C 156.871094 60.898438 157.730469 60.246094 158.808594 59.851563 C 159.628906 59.546875 160.613281 59.464844 161.765625 59.605469 C 163.257813 59.789063 164.390625 60.246094 165.152344 60.972656 C 165.914063 61.703125 166.347656 62.636719 166.453125 63.773438 L 163.984375 63.929688 C 163.886719 63.316406 163.625 62.808594 163.199219 62.410156 C 162.773438 62.011719 162.210938 61.769531 161.511719 61.683594 C 160.445313 61.550781 159.5625 61.785156 158.851563 62.378906 C 158.140625 62.980469 157.707031 63.9375 157.546875 65.265625 C 157.367188 66.691406 157.554688 67.804688 158.101563 68.597656 C 158.648438 69.390625 159.4375 69.847656 160.464844 69.972656 C 160.976563 70.035156 161.5 70 162.035156 69.863281 C 162.570313 69.726563 163.039063 69.535156 163.441406 69.296875 L 163.632813 67.769531 Z M 167.851563 73.199219 L 170.992188 61.484375 L 179.675781 63.8125 L 179.144531 65.796875 L 172.824219 64.101563 L 172.128906 66.699219 L 178.011719 68.273438 L 177.480469 70.246094 L 171.601563 68.671875 L 170.746094 71.859375 L 177.289063 73.613281 L 176.761719 75.589844 Z M 178.585938 76.4375 L 183.519531 65.355469 L 188.230469 67.453125 C 189.414063 67.980469 190.230469 68.460938 190.679688 68.898438 C 191.128906 69.335938 191.402344 69.882813 191.496094 70.535156 C 191.59375 71.1875 191.492188 71.839844 191.203125 72.496094 C 190.832031 73.328125 190.28125 73.90625 189.550781 74.230469 C 188.824219 74.554688 187.9375 74.570313 186.902344 74.277344 C 187.261719 74.777344 187.523438 75.265625 187.6875 75.742188 C 187.851563 76.222656 188.007813 77.007813 188.160156 78.105469 L 188.550781 80.871094 L 185.875 79.679688 L 185.332031 76.546875 C 185.140625 75.429688 184.988281 74.714844 184.878906 74.394531 C 184.765625 74.078125 184.609375 73.824219 184.410156 73.632813 C 184.210938 73.445313 183.855469 73.238281 183.335938 73.007813 L 182.886719 72.808594 L 180.824219 77.433594 Z M 183.675781 71.035156 L 185.328125 71.773438 C 186.402344 72.25 187.089844 72.507813 187.398438 72.535156 C 187.707031 72.5625 187.984375 72.496094 188.234375 72.34375 C 188.484375 72.1875 188.683594 71.949219 188.832031 71.613281 C 189 71.242188 189.03125 70.894531 188.9375 70.578125 C 188.839844 70.261719 188.621094 69.992188 188.285156 69.765625 C 188.117188 69.664063 187.578125 69.40625 186.667969 69.003906 L 184.925781 68.226563 Z M 189.519531 81.578125 L 195.398438 70.96875 L 197.539063 72.152344 L 191.660156 82.765625 Z M 201.988281 90.035156 L 200.160156 88.605469 L 205.554688 81.699219 C 204.394531 81.804688 203.246094 81.648438 202.105469 81.238281 L 203.402344 79.574219 C 204 79.792969 204.753906 79.902344 205.652344 79.90625 C 206.558594 79.90625 207.339844 79.695313 208.003906 79.273438 L 209.488281 80.4375 L 201.988281 90.035156 "/>
<path style=" stroke:none;fill-rule:nonzero;fill:rgb(100%,100%,100%);fill-opacity:1;" d="M 103.09375 233.019531 L 104.671875 234.941406 C 103.648438 235.855469 102.605469 236.347656 101.542969 236.429688 C 100.484375 236.503906 99.40625 236.191406 98.316406 235.480469 C 96.964844 234.605469 96.15625 233.421875 95.882813 231.933594 C 95.613281 230.445313 96 228.902344 97.035156 227.300781 C 98.136719 225.609375 99.429688 224.578125 100.910156 224.207031 C 102.394531 223.839844 103.847656 224.117188 105.273438 225.042969 C 106.515625 225.851563 107.289063 226.875 107.589844 228.117188 C 107.769531 228.851563 107.710938 229.699219 107.414063 230.664063 L 105.0625 229.832031 C 105.289063 229.226563 105.308594 228.644531 105.121094 228.089844 C 104.9375 227.535156 104.574219 227.082031 104.027344 226.730469 C 103.273438 226.242188 102.488281 226.113281 101.664063 226.351563 C 100.847656 226.585938 100.042969 227.308594 99.253906 228.523438 C 98.417969 229.808594 98.054688 230.875 98.164063 231.722656 C 98.269531 232.566406 98.695313 233.230469 99.433594 233.710938 C 99.980469 234.066406 100.5625 234.199219 101.183594 234.105469 C 101.800781 234.015625 102.4375 233.652344 103.09375 233.019531 Z M 106.699219 239.84375 L 112.207031 229.035156 L 114.390625 230.144531 L 108.882813 240.953125 Z M 113.023438 242.941406 L 116.972656 231.46875 L 121.851563 233.148438 C 123.074219 233.570313 123.929688 233.980469 124.414063 234.378906 C 124.898438 234.777344 125.21875 235.292969 125.371094 235.9375 C 125.523438 236.578125 125.480469 237.238281 125.246094 237.914063 C 124.953125 238.777344 124.453125 239.402344 123.753906 239.789063 C 123.058594 240.171875 122.175781 240.265625 121.121094 240.066406 C 121.519531 240.53125 121.824219 240.992188 122.03125 241.457031 C 122.234375 241.917969 122.460938 242.6875 122.707031 243.769531 L 123.339844 246.492188 L 120.566406 245.539063 L 119.753906 242.464844 C 119.464844 241.367188 119.253906 240.667969 119.113281 240.359375 C 118.976563 240.050781 118.796875 239.8125 118.582031 239.640625 C 118.363281 239.472656 117.992188 239.292969 117.457031 239.109375 L 116.992188 238.949219 L 115.34375 243.738281 Z M 117.621094 237.117188 L 119.335938 237.707031 C 120.445313 238.089844 121.152344 238.285156 121.464844 238.285156 C 121.773438 238.289063 122.042969 238.199219 122.28125 238.023438 C 122.515625 237.847656 122.691406 237.589844 122.8125 237.246094 C 122.945313 236.855469 122.949219 236.511719 122.824219 236.203125 C 122.699219 235.894531 122.460938 235.644531 122.105469 235.453125 C 121.925781 235.363281 121.367188 235.15625 120.429688 234.832031 L 118.621094 234.210938 Z M 137.707031 249.433594 L 135.089844 248.925781 L 134.574219 246.019531 L 129.8125 245.09375 L 128.308594 247.609375 L 125.757813 247.113281 L 132.710938 236.105469 L 135.253906 236.601563 Z M 134.195313 243.863281 L 133.410156 239.125 L 130.945313 243.230469 Z M 141.425781 249.527344 L 141.847656 237.40625 L 144.230469 237.488281 L 148.910156 245.757813 L 149.195313 237.660156 L 151.46875 237.742188 L 151.046875 249.863281 L 148.585938 249.777344 L 143.976563 241.703125 L 143.699219 249.609375 Z M 158.839844 237.097656 L 161.265625 236.800781 L 162.203125 244.421875 C 162.324219 245.417969 162.328125 246.199219 162.222656 246.753906 C 162.070313 247.484375 161.714844 248.101563 161.148438 248.601563 C 160.578125 249.101563 159.789063 249.414063 158.777344 249.535156 C 157.589844 249.683594 156.632813 249.464844 155.910156 248.875 C 155.191406 248.289063 154.746094 247.355469 154.585938 246.066406 L 156.84375 245.523438 C 156.953125 246.210938 157.117188 246.683594 157.324219 246.949219 C 157.640625 247.347656 158.066406 247.515625 158.605469 247.449219 C 159.144531 247.382813 159.511719 247.183594 159.695313 246.84375 C 159.882813 246.507813 159.914063 245.851563 159.796875 244.875 Z M 178.195313 245.351563 L 175.609375 246 L 173.914063 243.582031 L 169.210938 244.753906 L 168.90625 247.667969 L 166.386719 248.296875 L 168.035156 235.386719 L 170.550781 234.757813 Z M 172.660156 241.789063 L 169.949219 237.824219 L 169.449219 242.589844 Z M 181.769531 244.378906 L 176.640625 233.382813 L 178.804688 232.375 L 186.726563 237.617188 L 183.304688 230.277344 L 185.367188 229.316406 L 190.492188 240.308594 L 188.261719 241.347656 L 180.488281 236.246094 L 183.832031 243.414063 Z M 197.195313 231.492188 L 196.082031 229.777344 L 200.507813 226.902344 L 203.140625 230.953125 C 202.980469 231.652344 202.597656 232.421875 201.984375 233.273438 C 201.371094 234.117188 200.648438 234.8125 199.8125 235.355469 C 198.75 236.046875 197.675781 236.425781 196.597656 236.496094 C 195.511719 236.5625 194.503906 236.308594 193.566406 235.738281 C 192.628906 235.164063 191.84375 234.390625 191.210938 233.414063 C 190.523438 232.355469 190.132813 231.269531 190.039063 230.15625 C 189.953125 229.046875 190.191406 227.992188 190.765625 226.996094 C 191.195313 226.234375 191.898438 225.539063 192.871094 224.910156 C 194.132813 224.089844 195.292969 223.710938 196.34375 223.78125 C 197.398438 223.847656 198.332031 224.285156 199.144531 225.089844 L 197.351563 226.792969 C 196.882813 226.386719 196.355469 226.167969 195.769531 226.136719 C 195.1875 226.105469 194.601563 226.277344 194.011719 226.664063 C 193.113281 227.246094 192.585938 227.992188 192.421875 228.90625 C 192.261719 229.824219 192.546875 230.835938 193.273438 231.957031 C 194.058594 233.164063 194.914063 233.894531 195.84375 234.152344 C 196.773438 234.40625 197.671875 234.25 198.539063 233.6875 C 198.972656 233.40625 199.347656 233.042969 199.671875 232.59375 C 199.992188 232.144531 200.230469 231.695313 200.386719 231.253906 L 199.546875 229.964844 L 197.195313 231.492188 "/>
<path style=" stroke:none;fill-rule:nonzero;fill:rgb(100%,100%,100%);fill-opacity:1;" d="M 114.074219 258.507813 L 115.964844 260.125 C 115.113281 261.203125 114.171875 261.871094 113.140625 262.132813 C 112.113281 262.390625 110.996094 262.269531 109.796875 261.757813 C 108.316406 261.128906 107.3125 260.105469 106.789063 258.6875 C 106.265625 257.269531 106.375 255.679688 107.117188 253.925781 C 107.90625 252.066406 109 250.828125 110.398438 250.207031 C 111.792969 249.585938 113.273438 249.605469 114.835938 250.269531 C 116.203125 250.851563 117.140625 251.722656 117.652344 252.894531 C 117.960938 253.585938 118.046875 254.433594 117.921875 255.4375 L 115.460938 255.023438 C 115.578125 254.386719 115.496094 253.8125 115.21875 253.296875 C 114.941406 252.785156 114.503906 252.402344 113.90625 252.148438 C 113.078125 251.796875 112.277344 251.808594 111.511719 252.183594 C 110.746094 252.558594 110.078125 253.414063 109.515625 254.742188 C 108.914063 256.15625 108.738281 257.269531 108.996094 258.082031 C 109.246094 258.898438 109.78125 259.476563 110.59375 259.824219 C 111.191406 260.078125 111.789063 260.105469 112.382813 259.90625 C 112.976563 259.710938 113.539063 259.242188 114.074219 258.507813 Z M 119.378906 264.5 L 122.722656 252.839844 L 125.074219 253.511719 L 121.730469 265.171875 Z M 137.550781 268.367188 L 134.933594 267.859375 L 134.417969 264.949219 L 129.660156 264.023438 L 128.152344 266.539063 L 125.601563 266.042969 L 132.554688 255.039063 L 135.097656 255.53125 Z M 134.039063 262.796875 L 133.253906 258.058594 L 130.789063 262.164063 Z M 141.746094 268.144531 L 142.378906 256.03125 L 144.761719 256.152344 L 149.296875 264.503906 L 149.71875 256.414063 L 151.992188 256.53125 L 151.355469 268.648438 L 148.898438 268.519531 L 144.433594 260.363281 L 144.019531 268.261719 Z M 160.078125 255.671875 L 162.511719 255.460938 L 163.183594 263.109375 C 163.269531 264.109375 163.246094 264.890625 163.117188 265.441406 C 162.945313 266.164063 162.566406 266.769531 161.980469 267.246094 C 161.398438 267.730469 160.597656 268.011719 159.578125 268.101563 C 158.386719 268.207031 157.441406 267.953125 156.738281 267.339844 C 156.039063 266.730469 155.628906 265.78125 155.511719 264.488281 L 157.785156 264.023438 C 157.875 264.710938 158.019531 265.191406 158.21875 265.464844 C 158.519531 265.875 158.941406 266.054688 159.480469 266.007813 C 160.023438 265.960938 160.394531 265.773438 160.59375 265.441406 C 160.789063 265.113281 160.847656 264.457031 160.761719 263.476563 Z M 166.285156 254.96875 L 168.671875 254.414063 L 170.148438 260.816406 C 170.382813 261.832031 170.566406 262.484375 170.691406 262.773438 C 170.90625 263.234375 171.238281 263.566406 171.691406 263.769531 C 172.144531 263.972656 172.703125 264 173.367188 263.84375 C 174.046875 263.6875 174.527344 263.433594 174.804688 263.074219 C 175.085938 262.71875 175.214844 262.332031 175.191406 261.914063 C 175.167969 261.492188 175.046875 260.816406 174.828125 259.882813 L 173.320313 253.34375 L 175.707031 252.792969 L 177.140625 259 C 177.46875 260.417969 177.636719 261.4375 177.644531 262.050781 C 177.648438 262.667969 177.523438 263.214844 177.273438 263.699219 C 177.019531 264.183594 176.628906 264.609375 176.105469 264.984375 C 175.578125 265.359375 174.847656 265.652344 173.910156 265.867188 C 172.78125 266.128906 171.898438 266.195313 171.253906 266.070313 C 170.609375 265.941406 170.070313 265.710938 169.636719 265.371094 C 169.203125 265.035156 168.878906 264.648438 168.664063 264.21875 C 168.351563 263.578125 168.046875 262.59375 167.738281 261.273438 Z M 183.703125 263.058594 L 179.355469 251.734375 L 184.171875 249.882813 C 185.382813 249.417969 186.300781 249.183594 186.925781 249.179688 C 187.550781 249.171875 188.132813 249.363281 188.660156 249.757813 C 189.191406 250.152344 189.582031 250.679688 189.839844 251.351563 C 190.164063 252.199219 190.183594 253 189.898438 253.746094 C 189.613281 254.488281 188.996094 255.125 188.058594 255.652344 C 188.664063 255.75 189.195313 255.910156 189.648438 256.132813 C 190.105469 256.351563 190.769531 256.800781 191.65625 257.46875 L 193.886719 259.148438 L 191.152344 260.199219 L 188.554688 258.367188 C 187.628906 257.710938 187.011719 257.3125 186.710938 257.167969 C 186.40625 257.019531 186.117188 256.953125 185.839844 256.957031 C 185.566406 256.96875 185.164063 257.070313 184.640625 257.273438 L 184.179688 257.453125 L 185.992188 262.179688 Z M 183.484375 255.644531 L 185.171875 254.992188 C 186.269531 254.574219 186.9375 254.265625 187.179688 254.066406 C 187.414063 253.871094 187.566406 253.628906 187.632813 253.339844 C 187.699219 253.054688 187.671875 252.742188 187.539063 252.402344 C 187.394531 252.019531 187.171875 251.753906 186.878906 251.597656 C 186.585938 251.441406 186.242188 251.402344 185.847656 251.484375 C 185.652344 251.53125 185.09375 251.730469 184.164063 252.085938 L 182.382813 252.769531 L 183.484375 255.644531 "/>
</g>
</svg>
